<mxfile host="app.diagrams.net" modified="2024-05-07T17:44:43.598Z" agent="Mozilla/5.0 (Windows NT 10.0; Win64; x64) AppleWebKit/537.36 (KHTML, like Gecko) Chrome/124.0.0.0 Safari/537.36" version="24.0.4" etag="GwkL1yfJNg-ktfIGrbSF" type="github">
  <diagram name="Page-1" id="P69BoTEkZ7cawHc5dvbh">
    <mxGraphModel>
      <root>
        <mxCell id="0" />
        <mxCell id="1" parent="0" />
      </root>
    </mxGraphModel>
  </diagram>
</mxfile>
